<?xml version="1.0" encoding="utf-8"?>
<!-- Generator: Adobe Illustrator 24.2.3, SVG Export Plug-In . SVG Version: 6.00 Build 0)  -->
<svg version="1.1" id="Layer_1" xmlns="http://www.w3.org/2000/svg" xmlns:xlink="http://www.w3.org/1999/xlink" x="0px" y="0px"
	 viewBox="0 0 512 512" style="enable-background:new 0 0 512 512;" xml:space="preserve">
<path d="M274.4,509.4c-12.1,0-24.3,0-36.4,0c-9.7-1.5-19.5-2.6-29.1-4.5c-71-14.2-126.5-51.6-166.2-112.1
	C19.3,357.2,6.5,317.8,3.1,275.1c-4-51,5.4-99.4,31.6-143.1C89.4,40.8,170.5-3.1,277.2,3.1c49,2.9,93.3,20.4,131.9,50.4
	c63.2,49.1,97.3,114.2,100.5,194.3c2.5,61.7-16.3,117.2-54.8,165.5c-39.4,49.3-90.4,79.9-152.4,91.8
	C293,506.8,283.7,508,274.4,509.4z M326.4,253.6c0.3-0.8,0.5-1.2,0.5-1.5c-0.1-34.1-2.5-68.1-7.8-101.9c-0.6-3.9-2.4-4.4-5.6-4.4
	c-38.5,0.1-76.9,0.1-115.4,0c-3.5,0-5.1,1-5.6,4.5c-4.9,32.1-7.5,64.3-7.8,96.8c0,2,0.2,4.1,0.3,6.5
	C232.4,253.6,279.3,253.6,326.4,253.6z M185.3,273c0.5,36.3,4.1,71.9,11,107.5c39.9,0,79.4,0,118.9,0c5.5-14.8,14-96.6,10.9-107.5
	C279.4,273,232.6,273,185.3,273z M314.5,126.9c-0.1-1.4-0.1-2.5-0.4-3.6c-4.7-21.3-10.5-42.2-19.6-62.2
	c-5.3-11.6-11.4-22.7-20.7-31.7c-5.3-5.1-11.2-8.8-19.2-8.3c-9.9,0.7-16,7.1-21.7,14.1c-12.5,15.4-19.6,33.6-25.6,52.2
	c-4.1,12.8-7.2,26-10.9,39.4C236.6,126.9,275.4,126.9,314.5,126.9z M172.9,145.9c-19.3,0-39.2,0.1-59.1-0.1c-4.2,0-5.9,1.4-7.2,5.2
	c-9.2,26-14.6,52.8-16.6,80.3c-0.5,7.3-0.1,14.6-0.1,22.1c25.2,0,50.5,0,74.5,0C167.3,217.5,170.1,182.1,172.9,145.9z M422.4,253.6
	c1.4-28-7.2-77.7-17.5-103.8c-1.3-3.4-3.3-4-6.4-3.9c-18.6,0.1-37.2,0-55.8,0.1c-1.6,0-3.2,0.3-3.8,0.4c2.8,36.1,5.6,71.6,8.4,107.3
	C371.8,253.6,396.9,253.6,422.4,253.6z M336.4,380.9c17.9,0,36.6-0.2,55.4,0.1c4.4,0.1,6.2-1.6,7.7-5.4
	c8.8-21.4,15.3-43.6,18.9-66.5c1.9-11.9,2.9-23.9,4.4-36c-26.3,0-51.4,0-75.5,0C343.7,309.1,340.1,344.7,336.4,380.9z M164.9,273.1
	c-24.4,0-49.5,0-74.8,0c0,1.3-0.1,2.2,0,3.2c2.2,35,9.5,68.9,23.6,101.1c0.7,1.6,3.5,3.3,5.4,3.3c15.3,0.3,30.7,0.1,46,0.1
	c3.9,0,7.8,0,10.6,0C172,344.7,168.5,309.1,164.9,273.1z M311.3,400.1c-37.2,0-73.6,0-110.6,0c5.6,23,12.5,45,24.5,65
	c4.1,6.9,9.4,13.3,15.2,18.9c9.1,8.8,20.6,8.8,30.2,0.5c4.7-4,8.9-8.8,12.4-13.9c11.7-17.1,18.4-36.3,24.3-56
	C308.8,410,309.9,405.3,311.3,400.1z M490.8,253.7c0-1.9,0-3.2,0-4.5c-0.9-33.4-8.8-65-22.9-95.3c-2.9-6.2-6.3-8.8-13.2-8.2
	c-8.7,0.7-17.4,0.2-26.1,0.2c-1.6,0-3.2,0.3-5.3,0.5c12.5,35.1,17.4,70.9,18.4,107.4C458.4,253.7,474.2,253.7,490.8,253.7z
	 M88.5,145.9c-12.2,0-23.5,0.2-34.8-0.1c-3.9-0.1-6.2,1.1-7.9,4.7c-10.5,21.4-18.1,43.7-21.7,67.2c-1.8,11.7-2.5,23.6-3.8,35.8
	c17.5,0,33.7,0,50.2,0C70.4,216.7,76.6,181.3,88.5,145.9z M22,273c-0.1,28.9,16.7,81.4,33.8,105.4c0.8,1.2,2.6,2.3,3.9,2.4
	c11.4,0.2,22.7,0.1,34.9,0.1C80.2,346,72.9,310,70.9,273C54.2,273,38.4,273,22,273z M417.5,380.9c11.3,0,21.9-0.2,32.5,0.1
	c3.8,0.1,5.7-1.3,7.6-4.4c11.3-19.2,20.4-39.3,25.7-61c3.4-13.9,5.5-28,8.2-42.6c-17.5,0-33.5,0-50.2,0
	C439.3,310.1,431.8,346,417.5,380.9z M395.4,126.8c-21.4-43.8-50-79-95.9-97.4c18.4,30.1,27.2,63.4,34.5,97.4
	C354.4,126.8,374.5,126.8,395.4,126.8z M211.4,29.7c-32.5,8.6-90.8,68.8-93.5,97.2c19.9,0,39.7,0,59.1,0
	c4.7-16.8,8.6-33.7,14.3-49.8C197,60.8,204.7,45.2,211.4,29.7z M124.3,399.6c21.3,37.4,48.2,66.8,88.1,82.3c-1-2.9-2.5-5.4-4-8
	c-12.7-21.8-20.1-45.6-26.1-69.9c-0.8-3.4-2.2-4.7-5.7-4.6c-6.6,0.2-13.3,0.1-19.9,0.1C146.4,399.6,136,399.6,124.3,399.6z
	 M387.8,399.7c-19,0-36.6-0.1-54.2,0.2c-1.2,0-3.1,2.3-3.6,3.9c-2.7,8.7-4.9,17.5-7.6,26.1c-5.7,18.3-13.1,35.7-23.2,52.2
	C339.3,466.6,366.2,437.1,387.8,399.7z M361.4,47.2c2.5,2.5,5.2,4.9,7.6,7.4c19,20.2,33.6,43.4,45.2,68.5c0.7,1.6,2.5,3.8,3.9,3.8
	c11.1,0.3,22.2,0.2,34.4,0.2C428.9,91.8,399.2,65.1,361.4,47.2z M149.3,46.6c-37.2,19.2-66.5,45.6-89.8,80.5
	c12.3,0,23.2,0.1,34.1-0.2c1.4,0,3.2-2.1,4.1-3.6c8.4-14.5,16-29.6,25.2-43.6C130.4,68.3,139.9,58.2,149.3,46.6z M150,464.4
	c-0.6-0.7-1.1-1.4-1.7-2c-15.9-15.8-29.7-33.5-39.9-53.4c-3.9-7.6-8.3-10.4-16.6-9.5c-6.6,0.7-13.3,0.1-21.4,0.1
	C93,428,118.8,449.5,150,464.4z M441.6,399.6c-10.4,0-19.3,0.2-28.1-0.1c-3.6-0.1-5.4,1.3-7,4.3c-9.5,18.2-21,35-35,50.1
	c-2.9,3.1-5.7,6.2-8.5,9.3C394,448.8,419.4,427.6,441.6,399.6z"/>
</svg>
